<?xml version="1.0" encoding="utf-8"?>
<svg version="1.1" id="Layer_1" xmlns="http://www.w3.org/2000/svg" xmlns:xlink="http://www.w3.org/1999/xlink" x="0px" y="0px"
	 viewBox="0 0 252 144" style="enable-background:new 0 0 252 144;" xml:space="preserve">
<style type="text/css">
	.st0{fill:#3CC0F0;}
</style>
<g>
	<path class="st0" d="M92.85,86.52c-1.27,0.43-2.5,0.89-3.76,1.27c-13.34,3.97-27.68-1.1-34.31-12.09c-0.28-0.46-0.78-0.89-1.3-1.15
		c-6.74-3.42-13.51-6.8-20.27-10.2c-3.08-1.56-5.71-3.54-7.31-6.41c-2.42-4.32-1.48-9.44,2.41-13.07c3.47-3.24,7.82-4.87,12.76-5.47
		c4.34-0.53,8.59-0.24,12.68,1.13c5.6,1.88,9.25,5.34,10.5,10.59c0.73,3.05-0.57,5.48-3.37,6.49c-3.66,1.32-7.81-1-7.82-4.48
		c-0.01-2.27,0.31-4.54,0.36-6.82c0.02-0.87-0.2-1.77-0.5-2.6c-0.77-2.09-2.66-3.11-4.95-3.45c-4.71-0.7-9.27-0.25-13.36,2.06
		c-1.29,0.73-2.48,1.77-3.31,2.89c-1.81,2.45-1.02,5.38,2.04,7.29c2.51,1.57,5.22,2.89,7.89,4.25c5.02,2.56,10.11,5.02,15.11,7.62
		c3.93,2.04,6.5,5.07,7.67,8.97c1.07,3.58,2.6,6.96,5.18,9.92c2.21,2.52,4.87,4.52,8.51,5.18c4.62,0.84,8.34-0.75,11.52-3.58
		c1.7-1.52,1.67-1.54,0.46-3.34c-1.93-2.87-3.86-5.75-5.78-8.63c-0.14-0.21-0.24-0.45-0.36-0.67c0.09-0.05,0.17-0.11,0.26-0.16
		c0.25,0.29,0.55,0.56,0.76,0.87c2.68,4,5.36,7.99,8,12c0.9,1.36,1.97,2.56,3.65,3.18c0.81,0.3,1.72,0.48,2.6,0.53
		c1.47,0.09,2.95,0.03,4.43,0.02c1.77-0.02,2.49-0.96,1.81-2.41c-0.25-0.54-0.61-1.05-0.95-1.56c-6-8.93-12-17.85-18-26.78
		c-0.13-0.19-0.22-0.4-0.18-0.68c1.16,0.98,1.81,2.27,2.64,3.44c0.89,1.25,1.71,2.54,2.56,3.82c0.83,1.25,1.66,2.5,2.5,3.75
		c0.83,1.23,1.67,2.45,2.5,3.68c0.1-0.01,0.21-0.03,0.31-0.04c0.24-1.83,0.6-3.66,0.7-5.5c0.33-6.12-0.66-12.04-3.79-17.58
		c-1.8-3.18-4.17-5.94-7.77-7.71c-4.71-2.31-9.97-1.57-14.22,1.96c-2.1,1.75-3.68,3.83-4.93,6.11c-0.13,0.23-0.26,0.46-0.39,0.68
		c-1.01-1.84-2-3.64-3.07-5.6c0.87-0.5,1.84-1.12,2.88-1.63c16.32-8.1,36.49-0.81,41.46,15.11c2.47,7.91,0.65,15.23-4.97,21.78
		c-0.49,0.57-0.55,0.95-0.12,1.55c0.96,1.32,1.84,2.68,2.74,4.03c1.42,2.15,3.35,3.6,6.34,3.6c0.14,0,0.28,0.08,0.46,0.14
		c-0.6,0.43-20.14,0.5-21.31-0.01C92.16,88.63,93.37,88.19,92.85,86.52z"/>
	<path class="st0" d="M57.05,81.53c0.55,0.47,1.08,0.91,1.66,1.4c-1.5,1.4-3.26,2.34-5.11,3.17c-6.93,3.11-18.14,2.56-23.93-1.39
		c-3.9-2.65-6.29-6.04-6.33-10.48c-0.02-2.77,2.51-4.96,5.62-4.98c3.11-0.02,5.69,2.12,5.73,4.88c0.02,1.59-0.26,3.18-0.29,4.78
		c-0.02,1.38-0.02,2.79,0.24,4.14c0.33,1.65,1.58,2.78,3.31,3.45c4.92,1.9,13.6,0.41,17.32-2.99C55.91,82.95,56.4,82.27,57.05,81.53
		z"/>
</g>
</svg>
